name analog
datacolumns 19
datarows 42
range 0.393 0.41350000000000003
endheader
time	ground_force_vx	ground_force_vy	ground_force_vz	ground_force_px	ground_force_py	ground_force_pz	l_ground_force_vx	l_ground_force_vy	l_ground_force_vz	l_ground_force_px	l_ground_force_py	l_ground_force_pz	ground_torque_x	ground_torque_y	ground_torque_z	l_ground_torque_x	l_ground_torque_y	l_ground_torque_z
0.393	-0.0	-0.0	-0.0	9.21605110168457	38.94593811035156	-460.3780822753906	-6.807558059692383	-40.25161743164063	-425.7982482910156	-0.0	-0.0	-0.0	-0.0	-0.0	-0.0	83881.9140625	13660.056640625	-17391.7734375
0.3935	-0.0	-0.0	-0.0	9.836514472961426	38.5085563659668	-460.0842590332031	-7.536268711090088	-40.186370849609375	-425.4494018554688	-0.0	-0.0	-0.0	-0.0	-0.0	-0.0	84288.5078125	13796.7451171875	-17590.81640625
0.394	-0.0	-0.0	-0.0	9.76628875732422	38.5466423034668	-460.546630859375	-8.072681427001953	-40.76267623901367	-427.1216125488281	-0.0	-0.0	-0.0	-0.0	-0.0	-0.0	84318.3671875	13672.171875	-17702.162109375
0.3945	-0.0	-0.0	-0.0	10.25920867919922	37.74910736083984	-459.5989379882813	-8.208088874816895	-40.61405563354492	-427.9679870605469	-0.0	-0.0	-0.0	-0.0	-0.0	-0.0	84362.7890625	14004.9892578125	-17806.76953125
0.395	-0.0	-0.0	-0.0	9.663196563720703	37.70216369628906	-462.2193908691406	-8.338813781738281	-40.64643859863281	-426.5903015136719	-0.0	-0.0	-0.0	-0.0	-0.0	-0.0	84283.8125	13611.765625	-17955.17578125
0.3955	-0.0	-0.0	-0.0	10.164770126342772	37.58422088623047	-460.7335815429688	-8.143075942993164	-40.52141952514648	-426.9200744628906	-0.0	-0.0	-0.0	-0.0	-0.0	-0.0	84141.484375	13824.78515625	-17800.537109375
0.396	-0.0	-0.0	-0.0	9.807757377624512	37.911502838134766	-460.6402893066406	-7.75953483581543	-40.16825866699219	-427.4541015625	-0.0	-0.0	-0.0	-0.0	-0.0	-0.0	83831.203125	13644.3251953125	-17733.013671875
0.3965	-0.0	-0.0	-0.0	9.50373649597168	38.03499603271485	-460.4527587890625	-7.227152347564697	-40.14496994018555	-425.19580078125	-0.0	-0.0	-0.0	-0.0	-0.0	-0.0	84035.8984375	13685.15625	-17695.10546875
0.397	-0.0	-0.0	-0.0	9.72394561767578	38.141883850097656	-460.9468383789063	-6.765660762786865	-40.204078674316406	-425.1966857910156	-0.0	-0.0	-0.0	-0.0	-0.0	-0.0	83625.4140625	13695.2216796875	-17449.57421875
0.3975	-0.0	-0.0	-0.0	10.009300231933594	38.72411346435547	-461.3956909179688	-6.251099586486816	-40.81620788574219	-423.8005676269531	-0.0	-0.0	-0.0	-0.0	-0.0	-0.0	83292.859375	13591.4453125	-17403.84765625
0.398	-0.0	-0.0	-0.0	9.81956386566162	39.63274383544922	-463.91455078125	-6.298465728759766	-40.634273529052734	-423.1717529296875	-0.0	-0.0	-0.0	-0.0	-0.0	-0.0	83141.828125	13541.87890625	-17281.3828125
0.3985	-0.0	-0.0	-0.0	9.349782943725586	40.03685760498047	-465.9129028320313	-5.642967700958252	-40.91665649414063	-424.68792724609375	-0.0	-0.0	-0.0	-0.0	-0.0	-0.0	83567.609375	13710.3193359375	-17227.513671875
0.399	-0.0	-0.0	-0.0	8.708242416381836	40.34528350830078	-465.654296875	-5.660355091094971	-41.06288909912109	-425.1727600097656	-0.0	-0.0	-0.0	-0.0	-0.0	-0.0	83817.34375	13608.69921875	-17187.6875
0.3995	-0.0	-0.0	-0.0	8.465144157409668	40.59534454345703	-463.6689453125	-5.404335021972656	-40.41765975952149	-426.7298583984375	-0.0	-0.0	-0.0	-0.0	-0.0	-0.0	84016.171875	13278.7255859375	-17135.916015625
0.4	-0.0	-0.0	-0.0	8.045736312866211	40.47254943847656	-464.1075439453125	-5.161959648132324	-40.467994689941406	-427.2671508789063	-0.0	-0.0	-0.0	-0.0	-0.0	-0.0	84031.65625	13493.5634765625	-17143.720703125
0.4005	-0.0	-0.0	-0.0	7.737132549285889	40.76426696777344	-463.3423461914063	-5.339256286621094	-40.1071891784668	-426.6340637207031	-0.0	-0.0	-0.0	-0.0	-0.0	-0.0	84112.859375	13516.2744140625	-17205.537109375
0.401	-0.0	-0.0	-0.0	7.712799549102783	40.91866683959961	-463.4371643066406	-5.903129577636719	-40.41963958740234	-426.4734802246094	-0.0	-0.0	-0.0	-0.0	-0.0	-0.0	83841.34375	13557.9794921875	-17365.34765625
0.4015	-0.0	-0.0	-0.0	7.234038352966309	40.81340789794922	-462.31256103515625	-6.677459239959717	-39.92140197753906	-425.171630859375	-0.0	-0.0	-0.0	-0.0	-0.0	-0.0	83759.0078125	14086.2861328125	-17343.966796875
0.402	-0.0	-0.0	-0.0	8.045032501220703	40.93569564819336	-460.6431274414063	-7.209799289703369	-40.129974365234375	-424.7268371582031	-0.0	-0.0	-0.0	-0.0	-0.0	-0.0	83626.1953125	13935.00390625	-17597.99609375
0.4025	-0.0	-0.0	-0.0	8.126681327819824	40.80583190917969	-458.4905700683594	-8.14553451538086	-40.43455505371094	-423.52093505859375	-0.0	-0.0	-0.0	-0.0	-0.0	-0.0	83018.25	14057.5498046875	-17849.455078125
0.403	-0.0	-0.0	-0.0	8.896575927734375	40.685279846191406	-457.59619140625	-8.20145320892334	-39.952735900878906	-423.3294677734375	-0.0	-0.0	-0.0	-0.0	-0.0	-0.0	83447.3203125	13954.0693359375	-17933.060546875
0.4035	-0.0	-0.0	-0.0	8.912060737609863	40.47418975830078	-459.6719055175781	-8.507346153259277	-39.70276641845703	-423.0757141113281	-0.0	-0.0	-0.0	-0.0	-0.0	-0.0	83139.546875	13925.578125	-17928.029296875
0.404	-0.0	-0.0	-0.0	9.536364555358888	40.634315490722656	-455.22412109375	-8.403081893920898	-39.40679168701172	-422.9188232421875	-0.0	-0.0	-0.0	-0.0	-0.0	-0.0	83159.515625	13842.728515625	-17903.40234375
0.4045	-0.0	-0.0	-0.0	9.591288566589355	39.64778900146485	-455.978515625	-7.910467147827148	-39.27875900268555	-422.064453125	-0.0	-0.0	-0.0	-0.0	-0.0	-0.0	83145.078125	13976.279296875	-17703.564453125
0.405	-0.0	-0.0	-0.0	9.738974571228027	39.52885437011719	-453.3851318359375	-8.087663650512695	-39.43086242675781	-421.3292846679688	-0.0	-0.0	-0.0	-0.0	-0.0	-0.0	83050.3828125	14018.5185546875	-17685.515625
0.4055	-0.0	-0.0	-0.0	9.84295654296875	39.40550231933594	-452.5606384277344	-7.717838287353516	-39.38175582885742	-419.757080078125	-0.0	-0.0	-0.0	-0.0	-0.0	-0.0	82800.734375	13864.1357421875	-17792.484375
0.406	-0.0	-0.0	-0.0	9.595215797424316	38.43553161621094	-452.226806640625	-7.653820991516113	-39.05275344848633	-419.388671875	-0.0	-0.0	-0.0	-0.0	-0.0	-0.0	82518.1484375	13754.3798828125	-17805.529296875
0.40650000000000003	-0.0	-0.0	-0.0	10.12018871307373	38.24325942993164	-451.0681762695313	-7.121615409851074	-38.8471565246582	-417.0818786621094	-0.0	-0.0	-0.0	-0.0	-0.0	-0.0	82684.7265625	14038.7431640625	-17678.146484375
0.40700000000000003	-0.0	-0.0	-0.0	10.184370040893556	38.1085319519043	-449.18798828125	-6.944235324859619	-38.48357009887695	-417.5441589355469	-0.0	-0.0	-0.0	-0.0	-0.0	-0.0	82030.96875	13832.2646484375	-17622.0703125
0.40750000000000003	-0.0	-0.0	-0.0	9.57381534576416	38.336944580078125	-452.2684326171875	-6.88380765914917	-38.39517593383789	-416.0776977539063	-0.0	-0.0	-0.0	-0.0	-0.0	-0.0	82320.7578125	13886.4453125	-17553.294921875
0.40800000000000003	-0.0	-0.0	-0.0	8.767693519592285	39.00007247924805	-453.6814880371094	-6.57857608795166	-37.69944381713867	-416.7339782714844	-0.0	-0.0	-0.0	-0.0	-0.0	-0.0	82649.7265625	13859.6005859375	-17575.365234375
0.40850000000000003	-0.0	-0.0	-0.0	8.463717460632324	40.06975555419922	-456.0994262695313	-6.630973815917969	-37.52297592163086	-418.3922729492188	-0.0	-0.0	-0.0	-0.0	-0.0	-0.0	82537.7890625	13575.5458984375	-17592.05859375
0.40900000000000003	-0.0	-0.0	-0.0	8.284994125366211	40.27334213256836	-458.73486328125	-6.896506309509277	-36.86649703979492	-416.5379028320313	-0.0	-0.0	-0.0	-0.0	-0.0	-0.0	82716.53125	13869.20703125	-17677.287109375
0.40950000000000003	-0.0	-0.0	-0.0	8.246062278747559	41.34469985961914	-461.7061767578125	-6.8441314697265625	-36.95511245727539	-418.7843322753906	-0.0	-0.0	-0.0	-0.0	-0.0	-0.0	82966.9296875	13872.55859375	-17821.072265625
0.41000000000000003	-0.0	-0.0	-0.0	7.838404178619385	41.216758728027344	-463.2238159179688	-7.173571586608887	-37.031856536865234	-419.529296875	-0.0	-0.0	-0.0	-0.0	-0.0	-0.0	82812.046875	13870.8935546875	-17872.65234375
0.41050000000000003	-0.0	-0.0	-0.0	7.519858360290527	41.8405876159668	-463.3202819824219	-7.477810382843018	-37.271751403808594	-418.8313293457031	-0.0	-0.0	-0.0	-0.0	-0.0	-0.0	82654.46875	13795.6669921875	-18008.35546875
0.41100000000000003	-0.0	-0.0	-0.0	7.468771934509277	42.10789489746094	-464.3290100097656	-7.401183128356934	-37.57415008544922	-418.383056640625	-0.0	-0.0	-0.0	-0.0	-0.0	-0.0	83010.609375	14065.9423828125	-18016.755859375
0.41150000000000003	-0.0	-0.0	-0.0	6.996623992919922	42.24778747558594	-462.31256103515625	-7.502445220947266	-37.990909576416016	-418.8822326660156	-0.0	-0.0	-0.0	-0.0	-0.0	-0.0	83014.984375	13711.048828125	-18050.720703125
0.41200000000000003	-0.0	-0.0	-0.0	6.6523284912109375	42.22166442871094	-460.2945556640625	-7.616551876068115	-38.319095611572266	-419.7297668457031	-0.0	-0.0	-0.0	-0.0	-0.0	-0.0	83203.5078125	14112.1611328125	-18072.140625
0.41250000000000003	-0.0	-0.0	-0.0	6.677626132965088	42.01768112182617	-461.9593505859375	-8.212265968322754	-39.10182189941406	-420.4786682128906	-0.0	-0.0	-0.0	-0.0	-0.0	-0.0	83275.4375	14295.0	-18182.81640625
0.41300000000000003	-0.0	-0.0	-0.0	7.135582447052002	41.8265495300293	-460.396728515625	-8.718006134033203	-39.46883010864258	-418.98193359375	-0.0	-0.0	-0.0	-0.0	-0.0	-0.0	82870.34375	14225.5810546875	-18450.583984375
0.41350000000000003	-0.0	-0.0	-0.0	7.021919250488281	41.151004791259766	-460.1456298828125	-9.440945625305176	-39.14140701293945	-417.0881652832031	-0.0	-0.0	-0.0	-0.0	-0.0	-0.0	82530.828125	14409.9130859375	-18691.939453125
